<svg xmlns="http://www.w3.org/2000/svg" width="856" height="921" viewBox="0 0 856 921" role="img" aria-label="Remote control signal icon">
  <defs>
    <clipPath id="shape-clip">
      <path d="M420.0,416.0 L323.0,465.0 L45.0,613.0 L41.0,620.0 L40.0,628.0 L48.0,642.0 L149.0,678.0 L157.0,686.0 L151.0,702.0 L80.0,843.0 L78.0,850.0 L79.0,860.0 L83.0,868.0 L91.0,876.0 L101.0,880.0 L110.0,880.0 L121.0,876.0 L249.0,764.0 L255.0,764.0 L259.0,768.0 L302.0,853.0 L307.0,858.0 L315.0,861.0 L325.0,859.0 L331.0,854.0 L334.0,848.0 Z"/>
      <path d="M216.0,69.0 L210.0,83.0 L212.0,101.0 L220.0,112.0 L235.0,120.0 L250.0,120.0 L300.0,109.0 L350.0,105.0 L421.0,111.0 L467.0,122.0 L510.0,138.0 L551.0,159.0 L594.0,188.0 L618.0,208.0 L647.0,237.0 L667.0,261.0 L691.0,296.0 L713.0,337.0 L731.0,383.0 L742.0,425.0 L749.0,470.0 L750.0,513.0 L754.0,526.0 L764.0,537.0 L776.0,542.0 L795.0,540.0 L808.0,530.0 L815.0,512.0 L814.0,468.0 L810.0,433.0 L797.0,374.0 L777.0,318.0 L750.0,265.0 L718.0,218.0 L698.0,194.0 L664.0,160.0 L638.0,138.0 L583.0,101.0 L535.0,77.0 L482.0,58.0 L429.0,46.0 L362.0,40.0 L312.0,42.0 L281.0,46.0 L235.0,56.0 L224.0,61.0 Z"/>
      <path d="M249.0,201.0 L242.0,214.0 L241.0,228.0 L247.0,242.0 L261.0,253.0 L281.0,255.0 L307.0,248.0 L343.0,244.0 L398.0,248.0 L423.0,254.0 L462.0,269.0 L510.0,299.0 L555.0,344.0 L572.0,368.0 L589.0,400.0 L606.0,451.0 L611.0,483.0 L612.0,521.0 L619.0,536.0 L631.0,545.0 L652.0,547.0 L663.0,542.0 L671.0,534.0 L677.0,520.0 L675.0,468.0 L667.0,426.0 L653.0,383.0 L638.0,351.0 L617.0,317.0 L584.0,277.0 L553.0,249.0 L520.0,226.0 L480.0,205.0 L445.0,192.0 L400.0,182.0 L372.0,179.0 L315.0,181.0 L265.0,191.0 Z"/>
      <path d="M283.0,331.0 L276.0,344.0 L276.0,361.0 L281.0,371.0 L292.0,381.0 L305.0,385.0 L343.0,379.0 L371.0,381.0 L397.0,389.0 L426.0,406.0 L449.0,429.0 L466.0,457.0 L476.0,490.0 L478.0,528.0 L485.0,541.0 L498.0,550.0 L514.0,552.0 L526.0,548.0 L535.0,540.0 L542.0,525.0 L542.0,491.0 L539.0,470.0 L532.0,445.0 L519.0,416.0 L507.0,397.0 L491.0,377.0 L472.0,359.0 L432.0,333.0 L404.0,322.0 L377.0,316.0 L356.0,314.0 L322.0,316.0 L295.0,322.0 Z"/>
    </clipPath>
  </defs>
  <g fill="#2BCBF1">
    <path d="M420.0,416.0 L323.0,465.0 L45.0,613.0 L41.0,620.0 L40.0,628.0 L48.0,642.0 L149.0,678.0 L157.0,686.0 L151.0,702.0 L80.0,843.0 L78.0,850.0 L79.0,860.0 L83.0,868.0 L91.0,876.0 L101.0,880.0 L110.0,880.0 L121.0,876.0 L249.0,764.0 L255.0,764.0 L259.0,768.0 L302.0,853.0 L307.0,858.0 L315.0,861.0 L325.0,859.0 L331.0,854.0 L334.0,848.0 Z"/>
    <path d="M216.0,69.0 L210.0,83.0 L212.0,101.0 L220.0,112.0 L235.0,120.0 L250.0,120.0 L300.0,109.0 L350.0,105.0 L421.0,111.0 L467.0,122.0 L510.0,138.0 L551.0,159.0 L594.0,188.0 L618.0,208.0 L647.0,237.0 L667.0,261.0 L691.0,296.0 L713.0,337.0 L731.0,383.0 L742.0,425.0 L749.0,470.0 L750.0,513.0 L754.0,526.0 L764.0,537.0 L776.0,542.0 L795.0,540.0 L808.0,530.0 L815.0,512.0 L814.0,468.0 L810.0,433.0 L797.0,374.0 L777.0,318.0 L750.0,265.0 L718.0,218.0 L698.0,194.0 L664.0,160.0 L638.0,138.0 L583.0,101.0 L535.0,77.0 L482.0,58.0 L429.0,46.0 L362.0,40.0 L312.0,42.0 L281.0,46.0 L235.0,56.0 L224.0,61.0 Z"/>
    <path d="M249.0,201.0 L242.0,214.0 L241.0,228.0 L247.0,242.0 L261.0,253.0 L281.0,255.0 L307.0,248.0 L343.0,244.0 L398.0,248.0 L423.0,254.0 L462.0,269.0 L510.0,299.0 L555.0,344.0 L572.0,368.0 L589.0,400.0 L606.0,451.0 L611.0,483.0 L612.0,521.0 L619.0,536.0 L631.0,545.0 L652.0,547.0 L663.0,542.0 L671.0,534.0 L677.0,520.0 L675.0,468.0 L667.0,426.0 L653.0,383.0 L638.0,351.0 L617.0,317.0 L584.0,277.0 L553.0,249.0 L520.0,226.0 L480.0,205.0 L445.0,192.0 L400.0,182.0 L372.0,179.0 L315.0,181.0 L265.0,191.0 Z"/>
    <path d="M283.0,331.0 L276.0,344.0 L276.0,361.0 L281.0,371.0 L292.0,381.0 L305.0,385.0 L343.0,379.0 L371.0,381.0 L397.0,389.0 L426.0,406.0 L449.0,429.0 L466.0,457.0 L476.0,490.0 L478.0,528.0 L485.0,541.0 L498.0,550.0 L514.0,552.0 L526.0,548.0 L535.0,540.0 L542.0,525.0 L542.0,491.0 L539.0,470.0 L532.0,445.0 L519.0,416.0 L507.0,397.0 L491.0,377.0 L472.0,359.0 L432.0,333.0 L404.0,322.0 L377.0,316.0 L356.0,314.0 L322.0,316.0 L295.0,322.0 Z"/>
  </g>
  <g clip-path="url(#shape-clip)" fill="none" stroke="#071B56" stroke-width="28" stroke-linejoin="round" stroke-linecap="round">
    <path d="M420.0,416.0 L323.0,465.0 L45.0,613.0 L41.0,620.0 L40.0,628.0 L48.0,642.0 L149.0,678.0 L157.0,686.0 L151.0,702.0 L80.0,843.0 L78.0,850.0 L79.0,860.0 L83.0,868.0 L91.0,876.0 L101.0,880.0 L110.0,880.0 L121.0,876.0 L249.0,764.0 L255.0,764.0 L259.0,768.0 L302.0,853.0 L307.0,858.0 L315.0,861.0 L325.0,859.0 L331.0,854.0 L334.0,848.0 Z"/>
    <path d="M216.0,69.0 L210.0,83.0 L212.0,101.0 L220.0,112.0 L235.0,120.0 L250.0,120.0 L300.0,109.0 L350.0,105.0 L421.0,111.0 L467.0,122.0 L510.0,138.0 L551.0,159.0 L594.0,188.0 L618.0,208.0 L647.0,237.0 L667.0,261.0 L691.0,296.0 L713.0,337.0 L731.0,383.0 L742.0,425.0 L749.0,470.0 L750.0,513.0 L754.0,526.0 L764.0,537.0 L776.0,542.0 L795.0,540.0 L808.0,530.0 L815.0,512.0 L814.0,468.0 L810.0,433.0 L797.0,374.0 L777.0,318.0 L750.0,265.0 L718.0,218.0 L698.0,194.0 L664.0,160.0 L638.0,138.0 L583.0,101.0 L535.0,77.0 L482.0,58.0 L429.0,46.0 L362.0,40.0 L312.0,42.0 L281.0,46.0 L235.0,56.0 L224.0,61.0 Z"/>
    <path d="M249.0,201.0 L242.0,214.0 L241.0,228.0 L247.0,242.0 L261.0,253.0 L281.0,255.0 L307.0,248.0 L343.0,244.0 L398.0,248.0 L423.0,254.0 L462.0,269.0 L510.0,299.0 L555.0,344.0 L572.0,368.0 L589.0,400.0 L606.0,451.0 L611.0,483.0 L612.0,521.0 L619.0,536.0 L631.0,545.0 L652.0,547.0 L663.0,542.0 L671.0,534.0 L677.0,520.0 L675.0,468.0 L667.0,426.0 L653.0,383.0 L638.0,351.0 L617.0,317.0 L584.0,277.0 L553.0,249.0 L520.0,226.0 L480.0,205.0 L445.0,192.0 L400.0,182.0 L372.0,179.0 L315.0,181.0 L265.0,191.0 Z"/>
    <path d="M283.0,331.0 L276.0,344.0 L276.0,361.0 L281.0,371.0 L292.0,381.0 L305.0,385.0 L343.0,379.0 L371.0,381.0 L397.0,389.0 L426.0,406.0 L449.0,429.0 L466.0,457.0 L476.0,490.0 L478.0,528.0 L485.0,541.0 L498.0,550.0 L514.0,552.0 L526.0,548.0 L535.0,540.0 L542.0,525.0 L542.0,491.0 L539.0,470.0 L532.0,445.0 L519.0,416.0 L507.0,397.0 L491.0,377.0 L472.0,359.0 L432.0,333.0 L404.0,322.0 L377.0,316.0 L356.0,314.0 L322.0,316.0 L295.0,322.0 Z"/>
  </g>
</svg>
